# xmcd CD database file
#
# Track frame offsets:
#	150
#	16427
#	42400
#	64451
#	85354
#	107149
#	132560
#	161768
#	177264
#
# Disc length: 2589 seconds
#
# Revision: 0
# Processed by: cddbd v1.5.2PL0 Copyright (c) Steve Scherf et al.
# Submitted via: CDex 1.70beta2
#
DISCID=810a1b09
DTITLE=津上研太 - BOZO '1st
DYEAR=2002
DGENRE=Jazz
TTITLE0=Easy Crunch
TTITLE1=朝霞み
TTITLE2=マウススープ組曲 i. Bees and The Mud
TTITLE3=マウススープ組曲 ii. Two Large Stones
TTITLE4=マウススープ組曲 iii. The Crickets
TTITLE5=マウススープ組曲 iv. The Thorn Bush
TTITLE6=ロイカトン
TTITLE7=Calm Up
TTITLE8=The Quintessence
EXTD=YEAR: 2002
EXTT0=
EXTT1=
EXTT2=
EXTT3=
EXTT4=
EXTT5=
EXTT6=
EXTT7=
EXTT8=
PLAYORDER=
